<svg xmlns="http://www.w3.org/2000/svg" width="202" height="8" viewBox="-1 0 202 8" aria-hidden="true">
  <path
    d="M0,4 a2.5,2.5 0 0,1 5,0 a2.5,2.5 0 0,0 5,0 a2.5,2.5 0 0,1 5,0 a2.5,2.5 0 0,0 5,0 a2.5,2.5 0 0,1 5,0 a2.5,2.5 0 0,0 5,0 a2.5,2.5 0 0,1 5,0 a2.5,2.5 0 0,0 5,0 a2.5,2.5 0 0,1 5,0 a2.5,2.5 0 0,0 5,0 a2.5,2.5 0 0,1 5,0 a2.5,2.5 0 0,0 5,0 a2.5,2.5 0 0,1 5,0 a2.5,2.5 0 0,0 5,0 a2.5,2.5 0 0,1 5,0 a2.5,2.5 0 0,0 5,0 a2.5,2.5 0 0,1 5,0 a2.5,2.5 0 0,0 5,0 a2.5,2.5 0 0,1 5,0 a2.5,2.5 0 0,0 5,0"
    fill="none"
    stroke="#6e1d2f"
    stroke-width="1"
    stroke-linecap="round"
    stroke-linejoin="round"
  />
</svg>
